# xmcd
#
# Track frame offsets:
#	150
#	15098
#	36215
#	54174
#	75110
#	108785
#	128565
#	152338
#	173522
#	189238
#	218495
#	240144
#	265073
#
# Disc length: 3885 seconds
#
# Revision: 1
# Processed by: cddbd v1.5.1PL0 Copyright (c) Steve Scherf et al.
# Submitted via: audiograbber 1.83.01
#
DISCID=760f2b0d
DTITLE=Djordje Balasevic - Muzika iz nesnimljenog filma
DYEAR=2004
DGENRE=Ballad
TTITLE0=Prica o Vasi Ladackom (instrumental)
TTITLE1=Ja Vas, Kanda Znam
TTITLE2=Pred Zadnji Sneg
TTITLE3=Kao Rani Mraz
TTITLE4=Prica o Vasi Ladackom
TTITLE5=Aco-Braco
TTITLE6=Civutski Vrt
TTITLE7=Kere Varosanke
TTITLE8=Ladjarska Serenata
TTITLE9=Boze, Boze
TTITLE10=Galicia
TTITLE11=Tvoj neko
TTITLE12=Maliganska
EXTD=
EXTT0=
EXTT1=
EXTT2=
EXTT3=
EXTT4=
EXTT5=
EXTT6=
EXTT7=
EXTT8=
EXTT9=
EXTT10=
EXTT11=
EXTT12=
PLAYORDER=
